<svg xmlns="http://www.w3.org/2000/svg" version="1.1" xmlns:xlink="http://www.w3.org/1999/xlink" xmlns:svgjs="http://svgjs.dev/svgjs" viewBox="0 0 800 800"><defs><linearGradient x1="50%" y1="0%" x2="50%" y2="100%" id="ffflurry-grad" gradientTransform="rotate(270)"><stop stop-color="hsl(238, 82%, 13%)" stop-opacity="1" offset="0%"></stop><stop stop-color="hsl(162, 100%, 58%)" stop-opacity="1" offset="45%"></stop><stop stop-color="hsl(270, 73%, 53%)" stop-opacity="1" offset="100%"></stop></linearGradient></defs><rect width="100%" height="100%" fill="hsl(238, 82%, 13%)"></rect><g fill="url(#ffflurry-grad)"><rect width="242" height="2" x="111" y="176" rx="1" transform="rotate(34, 232, 177)" opacity="0.15"></rect><rect width="230" height="2" x="30" y="375" rx="1" transform="rotate(34, 145, 376)" opacity="0.79"></rect><rect width="82" height="2" x="393" y="61" rx="1" transform="rotate(34, 434, 62)" opacity="0.92"></rect><rect width="382" height="2" x="-85" y="670" rx="1" transform="rotate(34, 106, 671)" opacity="0.66"></rect><rect width="181" height="2" x="452.5" y="305" rx="1" transform="rotate(34, 543, 306)" opacity="0.38"></rect><rect width="160" height="2" x="-27" y="286" rx="1" transform="rotate(34, 53, 287)" opacity="0.55"></rect><rect width="181" height="2" x="-12.5" y="89" rx="1" transform="rotate(34, 78, 90)" opacity="0.71"></rect><rect width="230" height="2" x="576" y="619" rx="1" transform="rotate(34, 691, 620)" opacity="0.58"></rect><rect width="406" height="2" x="285" y="474" rx="1" transform="rotate(34, 488, 475)" opacity="0.44"></rect><rect width="241" height="2" x="227.5" y="296" rx="1" transform="rotate(34, 348, 297)" opacity="0.70"></rect><rect width="195" height="2" x="568.5" y="49" rx="1" transform="rotate(34, 666, 50)" opacity="0.27"></rect><rect width="73" height="2" x="223.5" y="53" rx="1" transform="rotate(34, 260, 54)" opacity="0.83"></rect><rect width="117" height="2" x="565.5" y="165" rx="1" transform="rotate(34, 624, 166)" opacity="0.16"></rect><rect width="211" height="2" x="615.5" y="316" rx="1" transform="rotate(34, 721, 317)" opacity="0.74"></rect><rect width="137" height="2" x="692.5" y="111" rx="1" transform="rotate(34, 761, 112)" opacity="0.43"></rect><rect width="185" height="2" x="405.5" y="142" rx="1" transform="rotate(34, 498, 143)" opacity="0.72"></rect><rect width="331" height="2" x="80.5" y="527" rx="1" transform="rotate(34, 246, 528)" opacity="0.66"></rect><rect width="116" height="2" x="366" y="702" rx="1" transform="rotate(34, 424, 703)" opacity="0.93"></rect></g></svg>